<svg xmlns="http://www.w3.org/2000/svg" xmlns:xlink="http://www.w3.org/1999/xlink" version="1.1" x="0px" y="0px" viewBox="0 0 32 40" style="enable-background:new 0 0 32 32;" xml:space="preserve"><g><path d="M21.3301,16.7676l-0.3852-0.2224C20.9649,16.3638,21,16.1867,21,16s-0.0351-0.3638-0.0551-0.5452l0.3852-0.2224   c0.2295-0.1328,0.3975-0.3516,0.4658-0.6074c0.0688-0.2559,0.0327-0.5293-0.0996-0.7588l-1-1.7324   c-0.2769-0.4775-0.8877-0.6436-1.3662-0.3662l-0.3782,0.2183c-0.2964-0.2186-0.6108-0.4123-0.9519-0.562V11c0-0.5527-0.4478-1-1-1   h-2c-0.5522,0-1,0.4473-1,1v0.4238c-0.3411,0.1497-0.6555,0.3434-0.9519,0.562l-0.3782-0.2183   c-0.48-0.2773-1.0903-0.1113-1.3662,0.3662l-1,1.7324c-0.1323,0.2295-0.1685,0.5029-0.0996,0.7588   c0.0684,0.2559,0.2363,0.4746,0.4658,0.6074l0.3852,0.2224C11.0351,15.6362,11,15.8133,11,16s0.0351,0.3638,0.0551,0.5452   l-0.3852,0.2224c-0.2295,0.1328-0.3975,0.3516-0.4658,0.6074c-0.0688,0.2559-0.0327,0.5293,0.0996,0.7588l1,1.7324   c0.1855,0.3203,0.5215,0.5,0.8672,0.5c0.1694,0,0.3413-0.043,0.499-0.1338l0.3782-0.2183c0.2964,0.2186,0.6108,0.4123,0.9519,0.562   V21c0,0.5527,0.4478,1,1,1h2c0.5522,0,1-0.4473,1-1v-0.4238c0.3411-0.1497,0.6555-0.3434,0.9519-0.562l0.3782,0.2183   c0.1577,0.0908,0.3296,0.1338,0.499,0.1338c0.3457,0,0.6816-0.1797,0.8672-0.5l1-1.7324c0.1323-0.2295,0.1685-0.5029,0.0996-0.7588   C21.7275,17.1191,21.5596,16.9004,21.3301,16.7676z M16,18c-1.1046,0-2-0.8954-2-2c0-1.1046,0.8954-2,2-2s2,0.8954,2,2   C18,17.1046,17.1046,18,16,18z"/><path d="M9,2H3C2.4478,2,2,2.4473,2,3v8c0,0.5527,0.4478,1,1,1h6c0.5522,0,1-0.4473,1-1V3C10,2.4473,9.5522,2,9,2z M7,11H5   c-0.5522,0-1-0.4473-1-1s0.4478-1,1-1h2c0.5522,0,1,0.4473,1,1S7.5522,11,7,11z M7,8H5C4.4478,8,4,7.5527,4,7s0.4478-1,1-1h2   c0.5522,0,1,0.4473,1,1S7.5522,8,7,8z M7,5H5C4.4478,5,4,4.5527,4,4s0.4478-1,1-1h2c0.5522,0,1,0.4473,1,1S7.5522,5,7,5z"/><path d="M17.707,6.293C17.5117,6.0977,17.2559,6,17,6V5.9375C17,4.3174,15.6821,3,14.0625,3H12c-0.5522,0-1,0.4473-1,1   s0.4478,1,1,1h2.0625C14.5796,5,15,5.4209,15,5.9375V6c-0.2559,0-0.5117,0.0977-0.707,0.293c-0.3906,0.3906-0.3906,1.0234,0,1.4141   l1,1C15.4883,8.9023,15.7441,9,16,9s0.5117-0.0977,0.707-0.293l1-1C18.0977,7.3164,18.0977,6.6836,17.707,6.293z"/><path d="M20.707,27.293l-1-1c-0.3906-0.3906-1.0234-0.3906-1.4141,0C18.0977,26.4883,18,26.7441,18,27h-0.0625   C17.4204,27,17,26.5791,17,26.0625V24c0-0.5527-0.4478-1-1-1s-1,0.4473-1,1v2.0625C15,27.6826,16.3179,29,17.9375,29H18   c0,0.2559,0.0977,0.5117,0.293,0.707S18.7441,30,19,30s0.5117-0.0977,0.707-0.293l1-1   C21.0977,28.3164,21.0977,27.6836,20.707,27.293z"/><path d="M26,22c-1.9265,0-4,0.313-4,1s2.0735,1,4,1s4-0.313,4-1S27.9265,22,26,22z"/><path d="M26,25c-1.8523,0-3.1754-0.2175-4-0.6337V26c0,0.687,2.0735,1,4,1s4-0.313,4-1v-1.6337C29.1754,24.7825,27.8523,25,26,25z"/><path d="M26,28c-1.8523,0-3.1754-0.2175-4-0.6337V29c0,0.687,2.0735,1,4,1s4-0.313,4-1v-1.6337C29.1754,27.7825,27.8523,28,26,28z"/></g><text x="0" y="47" fill="#000000" font-size="5px" font-weight="bold" font-family="'Helvetica Neue', Helvetica, Arial-Unicode, Arial, Sans-serif">Created by M. Oki Orlando</text><text x="0" y="52" fill="#000000" font-size="5px" font-weight="bold" font-family="'Helvetica Neue', Helvetica, Arial-Unicode, Arial, Sans-serif">from the Noun Project</text></svg>